<?xml version="1.0" encoding="utf-8"?>
<!-- Generator: Adobe Illustrator 25.0.0, SVG Export Plug-In . SVG Version: 6.00 Build 0)  -->
<svg version="1.1" id="_x31_" xmlns="http://www.w3.org/2000/svg" xmlns:xlink="http://www.w3.org/1999/xlink" x="0px" y="0px"
	 viewBox="0 0 512 512" style="enable-background:new 0 0 512 512;" xml:space="preserve">
<style type="text/css">
	.st0{fill:#2A9161;stroke:#2A9161;stroke-width:5;stroke-miterlimit:10;}
</style>
<path class="st0" d="M437.3,512h-256c-29.4,0-53.3-23.9-53.3-53.3v-320c0-29.4,23.9-53.3,53.3-53.3h256c29.4,0,53.3,23.9,53.3,53.3
	v320C490.7,488.1,466.7,512,437.3,512z M181.3,106.7c-17.6,0-32,14.4-32,32v320c0,17.6,14.4,32,32,32h256c17.6,0,32-14.4,32-32v-320
	c0-17.6-14.4-32-32-32L181.3,106.7L181.3,106.7z"/>
<path class="st0" d="M96,448H74.7c-29.4,0-53.3-23.9-53.3-53.3V53.3C21.3,23.9,45.3,0,74.7,0h256C360.1,0,384,23.9,384,53.3
	c0,5.9-4.8,10.7-10.7,10.7s-10.7-4.8-10.7-10.7c0-17.6-14.4-32-32-32h-256c-17.6,0-32,14.4-32,32v341.3c0,17.6,14.4,32,32,32H96
	c5.9,0,10.7,4.8,10.7,10.7S101.9,448,96,448z"/>
<path class="st0" d="M394.7,362.7H224c-5.9,0-10.7-4.8-10.7-10.7c0-5.9,4.8-10.7,10.7-10.7h170.7c5.9,0,10.7,4.8,10.7,10.7
	C405.3,357.9,400.6,362.7,394.7,362.7z"/>
<path class="st0" d="M394.7,448H224c-5.9,0-10.7-4.8-10.7-10.7s4.8-10.7,10.7-10.7h170.7c5.9,0,10.7,4.8,10.7,10.7
	S400.6,448,394.7,448z"/>
<path class="st0" d="M394.7,277.3H224c-5.9,0-10.7-4.8-10.7-10.7S218.1,256,224,256h170.7c5.9,0,10.7,4.8,10.7,10.7
	S400.6,277.3,394.7,277.3z"/>
<path class="st0" d="M394.7,192H224c-5.9,0-10.7-4.8-10.7-10.7s4.8-10.7,10.7-10.7h170.7c5.9,0,10.7,4.8,10.7,10.7
	S400.6,192,394.7,192z"/>
</svg>
