<svg xmlns="http://www.w3.org/2000/svg" xmlns:xlink="http://www.w3.org/1999/xlink" viewBox="0 0 270.67 271.74"><defs><style>.cls-1{fill:url(#linear-gradient);}.cls-2{fill:url(#linear-gradient-2);}.cls-3{fill:url(#linear-gradient-3);}.cls-4{fill:url(#linear-gradient-4);}.cls-5{fill:url(#linear-gradient-5);}.cls-6{fill:url(#linear-gradient-6);}</style><linearGradient id="linear-gradient" x1="135.34" y1="-402.82" x2="135.34" y2="-147.01" gradientTransform="matrix(1, 0, 0, -1, 0, -147.01)" gradientUnits="userSpaceOnUse"><stop offset="0" stop-color="#73bf44"/><stop offset="1" stop-color="#b3d787"/></linearGradient><linearGradient id="linear-gradient-2" x1="28.44" y1="-355.06" x2="28.44" y2="-259.53" xlink:href="#linear-gradient"/><linearGradient id="linear-gradient-3" x1="210.97" y1="-355.06" x2="210.97" y2="-259.53" gradientTransform="matrix(1, 0, 0, -1, 0, -147.01)" gradientUnits="userSpaceOnUse"><stop offset="0" stop-color="#b2d787"/><stop offset="1" stop-color="#fdfce6"/></linearGradient><linearGradient id="linear-gradient-4" x1="59.71" y1="-355.06" x2="59.71" y2="-259.53" xlink:href="#linear-gradient-3"/><linearGradient id="linear-gradient-5" x1="250.77" y1="-355.06" x2="250.77" y2="-259.53" xlink:href="#linear-gradient"/><linearGradient id="linear-gradient-6" x1="135.34" y1="-418.75" x2="135.34" y2="-370.98" xlink:href="#linear-gradient-3"/></defs><g id="Layer_2" data-name="Layer 2"><g id="Layer_1-2" data-name="Layer 1"><path class="cls-1" d="M135.34,0A103.62,103.62,0,0,0,31.84,103.49v17a8,8,0,0,0,15.93,0v-17a87.57,87.57,0,0,1,175.14,0v17a8,8,0,0,0,15.92,0v-17A103.61,103.61,0,0,0,135.34,0Zm95.53,192.13a8,8,0,0,0-8,8,39.85,39.85,0,0,1-39.81,39.8H151.26a8,8,0,1,0,0,15.92H183.1a55.79,55.79,0,0,0,55.73-55.72A8,8,0,0,0,230.87,192.13Z"/><path class="cls-2" d="M39.8,112.52,56.87,161,39.8,208.05A39.82,39.82,0,0,1,0,168.24V152.32A39.81,39.81,0,0,1,39.8,112.52Z"/><path class="cls-3" d="M230.87,112.52v95.53H199a7.89,7.89,0,0,1-8-8V120.48a7.89,7.89,0,0,1,8-8Z"/><path class="cls-4" d="M79.61,120.48v79.61a7.89,7.89,0,0,1-8,8H39.8V112.52H71.65A7.88,7.88,0,0,1,79.61,120.48Z"/><path class="cls-5" d="M270.67,151.26v15.92c0,22-17.83,40.87-39.8,40.87V112.52C252.84,112.52,270.67,129.29,270.67,151.26Z"/><path class="cls-6" d="M135.34,271.74a23.89,23.89,0,1,1,23.88-23.89A23.92,23.92,0,0,1,135.34,271.74Z"/></g></g></svg>