<svg xmlns="http://www.w3.org/2000/svg" xmlns:xlink="http://www.w3.org/1999/xlink" viewBox="0 0 271.74 271.74"><defs><style>.cls-1{fill:url(#linear-gradient);}.cls-2{fill:url(#linear-gradient-2);}</style><linearGradient id="linear-gradient" x1="147.87" y1="-451.45" x2="147.87" y2="-276.31" gradientTransform="matrix(1, 0, 0, -1, -12, -228.01)" gradientUnits="userSpaceOnUse"><stop offset="0" stop-color="#73bf44"/><stop offset="1" stop-color="#d7e9b8"/></linearGradient><linearGradient id="linear-gradient-2" x1="147.87" y1="-499.75" x2="147.87" y2="-228.01" gradientTransform="matrix(1, 0, 0, -1, -12, -228.01)" gradientUnits="userSpaceOnUse"><stop offset="0" stop-color="#b2d787"/><stop offset="1" stop-color="#fdfce6"/></linearGradient></defs><g id="Layer_2" data-name="Layer 2"><g id="Layer_1-2" data-name="Layer 1"><path class="cls-1" d="M135.87,48.3a87.57,87.57,0,1,0,87.57,87.57A87.66,87.66,0,0,0,135.87,48.3Z"/><path class="cls-2" d="M154.44,116a8,8,0,0,0,15.93,0c0-7.77-4-15.22-11-20.45a37.54,37.54,0,0,0-15.58-6.68V88.1a8,8,0,0,0-15.92,0v.74a37.48,37.48,0,0,0-15.58,6.68c-7,5.23-11,12.68-11,20.45s4,15.21,11,20.44a37.48,37.48,0,0,0,15.58,6.68v23.38c-6.17-2-10.62-6.14-10.62-10.7a8,8,0,0,0-15.92,0c0,7.77,4,15.22,11,20.44a37.63,37.63,0,0,0,15.58,6.69v.73a8,8,0,0,0,15.92,0v-.73a37.68,37.68,0,0,0,15.58-6.69c7-5.22,11-12.67,11-20.44s-4-15.22-11-20.44a37.68,37.68,0,0,0-15.58-6.69V105.26c6.16,2,10.61,6.15,10.61,10.71Zm-26.53,10.7c-6.17-2-10.62-6.15-10.62-10.7s4.45-8.71,10.62-10.71Zm26.53,29.1c0,4.56-4.45,8.71-10.61,10.7v-21.4C150,147.06,154.44,151.21,154.44,155.77Zm111-60.32a8,8,0,0,0-15.18,4.82A119.47,119.47,0,0,1,68.09,234.39a8,8,0,0,0,3.27-15.48L37.59,207.66a8,8,0,0,0-10.07,10.07L38.78,251.5a8,8,0,1,0,15.1-5l-1.24-3.73A135.4,135.4,0,0,0,265.43,95.45ZM15.92,135.34a119.46,119.46,0,0,1,187.73-98,8,8,0,0,0-3.28,15.47l33.78,11.26a7.76,7.76,0,0,0,2.51.41A8,8,0,0,0,244.22,54L233,20.23a8,8,0,0,0-15.11,5L219.09,29A135.4,135.4,0,0,0,6.31,176.28a8,8,0,0,0,7.58,5.56,7.77,7.77,0,0,0,2.41-.38,8,8,0,0,0,5.18-10,119.42,119.42,0,0,1-5.56-36.13Z"/></g></g></svg>