<svg xmlns="http://www.w3.org/2000/svg" xmlns:xlink="http://www.w3.org/1999/xlink" viewBox="0 0 238.83 271.74"><defs><style>.cls-1{fill:url(#linear-gradient);}.cls-2{fill:url(#linear-gradient-2);}</style><linearGradient id="linear-gradient" x1="131.42" y1="66.13" x2="131.42" y2="274.17" gradientTransform="matrix(1, 0, 0, -1, -12.01, 337.86)" gradientUnits="userSpaceOnUse"><stop offset="0" stop-color="#73bf44"/><stop offset="1" stop-color="#d7e9b8"/></linearGradient><linearGradient id="linear-gradient-2" x1="131.42" y1="66.13" x2="131.42" y2="337.86" gradientTransform="matrix(1, 0, 0, -1, -12.01, 337.86)" gradientUnits="userSpaceOnUse"><stop offset="0" stop-color="#b2d787"/><stop offset="1" stop-color="#fdfce6"/></linearGradient></defs><g id="Layer_2" data-name="Layer 2"><g id="Layer_1-2" data-name="Layer 1"><path class="cls-1" d="M230.87,63.69h-87.6l-12.71,8h-18l-17-8H8a8,8,0,0,0-8,8V263.77a8,8,0,0,0,8,8H95.53l12.74-9h19.64l15.39,9h87.57a8,8,0,0,0,8-8V71.65a8,8,0,0,0-8-8Z"/><path class="cls-2" d="M222.8,38.53a8,8,0,0,0-4.29-5.84L154.82.84a8,8,0,0,0-10.61,3.42,9.41,9.41,0,0,0-1,4.57c-.48,12.6-2.06,23.57-4.69,32.59-4.29,14.78-10.73,22.27-19.14,22.27s-14.84-7.49-19.14-22.27c-2.62-9-4.2-20-4.68-32.59a9.41,9.41,0,0,0-1-4.57A8,8,0,0,0,84,.84L20.32,32.69a8,8,0,0,0-2.07,12.75c1.22,1.21,26.86,26.27,77.28,32.68V271.74H143.3V78.12c50.42-6.41,76.06-31.47,77.27-32.68a8,8,0,0,0,2.23-6.91Z"/></g></g></svg>