<svg xmlns="http://www.w3.org/2000/svg" xmlns:xlink="http://www.w3.org/1999/xlink" viewBox="0 0 271.74 271.74"><defs><style>.cls-1{fill:url(#linear-gradient);}.cls-2{fill:url(#linear-gradient-2);}</style><linearGradient id="linear-gradient" x1="139.91" y1="82.44" x2="139.91" y2="337.86" gradientTransform="matrix(1, 0, 0, -1, -12, 337.86)" gradientUnits="userSpaceOnUse"><stop offset="0" stop-color="#b2d787"/><stop offset="1" stop-color="#fdfce6"/></linearGradient><linearGradient id="linear-gradient-2" x1="158.48" y1="66.13" x2="158.48" y2="337.86" gradientTransform="matrix(1, 0, 0, -1, -12, 337.86)" gradientUnits="userSpaceOnUse"><stop offset="0" stop-color="#73bf44"/><stop offset="1" stop-color="#d7e9b8"/></linearGradient></defs><g id="Layer_2" data-name="Layer 2"><g id="Layer_1-2" data-name="Layer 1"><path class="cls-1" d="M150.94,207H8a8,8,0,0,1-8-8V8A8,8,0,0,1,8,0H199a8,8,0,0,1,8,8V128.44H189.47a8,8,0,0,0-8,8A18.59,18.59,0,0,1,162.94,155h-5.31a8,8,0,0,0-8,8v29.5A83.65,83.65,0,0,0,150.94,207Zm45.57-62.63H224.9a34.58,34.58,0,0,0,30.91,26.44v21.64a66.08,66.08,0,0,1-45.11,63,66.08,66.08,0,0,1-45.11-63V170.8a34.6,34.6,0,0,0,30.92-26.44Z"/><path class="cls-2" d="M263.77,155h-5.3a18.59,18.59,0,0,1-18.58-18.57,8,8,0,0,0-8-8H189.47a8,8,0,0,0-8,8A18.59,18.59,0,0,1,162.94,155h-5.31a8,8,0,0,0-8,8v29.5a82.41,82.41,0,0,0,58.74,79,7.88,7.88,0,0,0,4.58,0,82.44,82.44,0,0,0,58.75-79v-29.5a8,8,0,0,0-8-8Zm-8,37.47a66.08,66.08,0,0,1-45.11,63,66.08,66.08,0,0,1-45.11-63V170.8a34.6,34.6,0,0,0,30.92-26.44H224.9a34.58,34.58,0,0,0,30.91,26.44ZM198,221.64l-14.16-14.16a8,8,0,0,1,11.26-11.25l8.52,8.52,22.68-22.68a8,8,0,1,1,11.26,11.26l-28.31,28.31a8,8,0,0,1-11.25,0ZM61,153.91H29.19a8,8,0,0,1,0-15.92H61a8,8,0,1,1,0,15.92Zm8,23.89a8,8,0,0,0-8-8H29.19a8,8,0,0,0,0,15.93H61A8,8,0,0,0,69,177.8ZM127.38,55.73V0H79.61V55.73A8,8,0,0,0,92,62.35l11.5-7.67L115,62.35A8,8,0,0,0,127.38,55.73Z"/></g></g></svg>