<?xml version="1.0" encoding="utf-8"?>
<!-- Generator: Adobe Illustrator 25.0.0, SVG Export Plug-In . SVG Version: 6.00 Build 0)  -->
<svg version="1.1" id="Layer_1" xmlns="http://www.w3.org/2000/svg" xmlns:xlink="http://www.w3.org/1999/xlink" x="0px" y="0px"
	 viewBox="0 0 512 512" style="enable-background:new 0 0 512 512;" xml:space="preserve">
<style type="text/css">
	.st0{fill-rule:evenodd;clip-rule:evenodd;fill:#B4EF8E;}
	.st1{fill-rule:evenodd;clip-rule:evenodd;fill:#72BE44;}
</style>
<g transform="translate(-240 -384)">
	<path class="st0" d="M569.1,530.3v72.3c0,14-8,26.7-20.5,32.9s-27.5,4.6-38.5-4l-14.1-11l-14.1,11c-11,8.6-26,10.1-38.5,4
		s-20.5-18.9-20.5-32.9v-72.3H258.3v310.9c0,14.6,5.8,28.5,16.1,38.8c10.3,10.3,24.2,16.1,38.8,16.1h365.7
		c14.6,0,28.5-5.8,38.8-16.1c10.3-10.3,16.1-24.2,16.1-38.8V530.3H569.1z"/>
	<g>
		<path class="st1" d="M384.2,804.5c-29.3-1.1-52.8-25.2-52.8-54.8c0-30.3,24.6-54.9,54.9-54.9h18.3c10.1,0,18.3,8.2,18.3,18.3
			s-8.2,18.3-18.3,18.3h-18.3c-10.1,0-18.3,8.2-18.3,18.3s8.2,18.3,18.3,18.3h16.2c10.1,0,18.3,8.2,18.3,18.3
			c0,9.8-7.7,17.8-17.3,18.3L384.2,804.5L384.2,804.5z"/>
		<path class="st1" d="M569.1,786.3c0,10.1,8.2,18.3,18.3,18.3h18.3c30.3,0,54.9-24.6,54.9-54.9s-24.6-54.9-54.9-54.9h-18.3
			c-10.1,0-18.3,8.2-18.3,18.3V786.3z M605.7,768c10.1,0,18.3-8.2,18.3-18.3s-8.2-18.3-18.3-18.3V768z"/>
		<path class="st1" d="M496,694.9c-30.3,0-54.9,24.6-54.9,54.9s24.6,54.9,54.9,54.9s54.9-24.6,54.9-54.9S526.3,694.9,496,694.9z
			 M496,731.4c10.1,0,18.3,8.2,18.3,18.3S506.1,768,496,768s-18.3-8.2-18.3-18.3S485.9,731.4,496,731.4z"/>
		<path class="st1" d="M532.6,530.3v72.3c-13-10.1-25.3-19.7-25.3-19.7c-6.6-5.1-15.9-5.1-22.5,0l-25.3,19.7v-72.3H532.6z"/>
	</g>
	<path class="st0" d="M446.8,384l-23.7,109.7H265.3l39.7-79.4c9.3-18.6,28.3-30.3,49.1-30.3H446.8z"/>
	<path class="st0" d="M568.9,493.7L545.2,384H638c20.8,0,39.8,11.7,49.1,30.3l39.7,79.4H568.9z"/>
	<path class="st1" d="M460.5,493.7L484.2,384h23.6l23.7,109.7H460.5z"/>
</g>
</svg>
