<?xml version="1.0" encoding="utf-8"?>
<!-- Generator: Adobe Illustrator 25.0.0, SVG Export Plug-In . SVG Version: 6.00 Build 0)  -->
<svg version="1.1" id="Layer_1" xmlns="http://www.w3.org/2000/svg" xmlns:xlink="http://www.w3.org/1999/xlink" x="0px" y="0px"
	 viewBox="0 0 512 512" style="enable-background:new 0 0 512 512;" xml:space="preserve">
<style type="text/css">
	.st0{fill-rule:evenodd;clip-rule:evenodd;fill:#B4EF8E;}
	.st1{fill-rule:evenodd;clip-rule:evenodd;fill:#72BE44;}
</style>
<g transform="translate(0 -384)">
	<circle class="st0" cx="405.5" cy="765.3" r="106.5"/>
	<path class="st0" d="M497.2,656.9c-24.8-21-56.8-33.6-91.7-33.6c-78.4,0-142,63.7-142,142c0,22.3,5.1,43.3,14.3,62.1H53.3
		c-14.1,0-27.7-5.6-37.7-15.6C5.6,801.9,0,788.3,0,774.2V578.9h497.2V656.9z"/>
	<g>
		<path class="st1" d="M361.8,786.8l17.8,17.8c3.3,3.3,7.8,5.2,12.6,5.2c4.7,0,9.2-1.9,12.6-5.2l44.3-44.4c6.9-6.9,6.9-18.2,0-25.1
			c-6.9-6.9-18.2-6.9-25.1,0l-31.8,31.9l-5.2-5.2c-6.9-6.9-18.2-6.9-25.1,0C354.9,768.6,354.9,779.8,361.8,786.8L361.8,786.8z"/>
		<path class="st1" d="M88.8,756.4h17.8c9.8,0,17.8-8,17.8-17.8s-8-17.8-17.8-17.8H88.8c-9.8,0-17.8,8-17.8,17.8
			S79,756.4,88.8,756.4z"/>
		<path class="st1" d="M159.8,756.4h17.8c9.8,0,17.8-8,17.8-17.8s-8-17.8-17.8-17.8h-17.8c-9.8,0-17.8,8-17.8,17.8
			S150,756.4,159.8,756.4z"/>
		<path class="st1" d="M0,543.3v-53.3c0-14.1,5.6-27.7,15.6-37.7c10-10,23.5-15.6,37.7-15.6h390.6c14.1,0,27.7,5.6,37.7,15.6
			c10,10,15.6,23.5,15.6,37.7v53.3H0z"/>
	</g>
</g>
</svg>
