<?xml version="1.0" encoding="utf-8"?>
<!-- Generator: Adobe Illustrator 25.0.0, SVG Export Plug-In . SVG Version: 6.00 Build 0)  -->
<svg version="1.1" id="Layer_1" xmlns="http://www.w3.org/2000/svg" xmlns:xlink="http://www.w3.org/1999/xlink" x="0px" y="0px"
	 viewBox="0 0 512 512" style="enable-background:new 0 0 512 512;" xml:space="preserve">
<style type="text/css">
	.st0{fill-rule:evenodd;clip-rule:evenodd;fill:#B4EF8E;}
	.st1{fill-rule:evenodd;clip-rule:evenodd;fill:#72BE44;}
</style>
<g transform="translate(-48 -240)">
	<path class="st0" d="M377.1,313.1H102.9C72.6,313.1,48,337.7,48,368v73.1c0,10.1,8.2,18.3,18.3,18.3c20.2,0,36.6,16.4,36.6,36.6
		s-16.4,36.6-36.6,36.6c-10.1,0-18.3,8.2-18.3,18.3V624c0,30.3,24.6,54.9,54.9,54.9h274.3v-73.1c0-10.1,8.2-18.3,18.3-18.3
		s18.3,8.2,18.3,18.3v73.1h91.4c30.3,0,54.9-24.6,54.9-54.9v-73.1c-0.2-10.8-6.8-16.4-18.3-18.3c-20.2,0-36.6-16.4-36.6-36.6
		s16.4-36.6,36.6-36.6c10.1,0,18.3-8.2,18.3-18.3V368c0-30.3-24.6-54.9-54.9-54.9h-91.4v73.1c0,10.1-8.2,18.3-18.3,18.3
		s-18.3-8.2-18.3-18.3V313.1z"/>
	<path class="st1" d="M377.1,459.4v73.1c0,10.1,8.2,18.3,18.3,18.3s18.3-8.2,18.3-18.3v-73.1c0-10.1-8.2-18.3-18.3-18.3
		S377.1,449.3,377.1,459.4z"/>
	<g transform="translate(0 -8)">
		<path class="st1" d="M377.1,321.1v73.1c0,10.1,8.2,18.3,18.3,18.3s18.3-8.2,18.3-18.3v-73.1H377.1z"/>
	</g>
	<g transform="matrix(1 0 0 -1 0 520)">
		<path class="st1" d="M377.1-158.9v73.1c0,10.1,8.2,18.3,18.3,18.3s18.3-8.2,18.3-18.3v-73.1H377.1z"/>
	</g>
</g>
</svg>
