<svg xmlns="http://www.w3.org/2000/svg" viewBox="0 0 192.28 192.3"><defs><style>.cls-1{fill:#6abf4b;}</style></defs><g id="Layer_2" data-name="Layer 2"><g id="Layer_1-2" data-name="Layer 1"><path class="cls-1" d="M144.2,0V96.15a48.08,48.08,0,0,1-48.07,48.08H48.06V72.11A48.11,48.11,0,0,0,1.5,108.18v0a47.86,47.86,0,0,0-1.5,12V192.3H96.13a96.15,96.15,0,0,0,96.15-96.15V0Z"/><path class="cls-1" d="M120.17,84.14V24c-.83,0-1.69,0-2.53.07l-.82.06-1.67.13-.88.12c-.55.06-1.06.12-1.59.2l-.85.15c-.52.1-1.06.19-1.58.3l-.72.17c-.57.13-1.15.26-1.7.41a4.41,4.41,0,0,0-.55.16c-.64.17-1.24.34-1.84.54l-.36.12c-.68.22-1.34.46-2,.71l-.11.05a45.3,45.3,0,0,0-4.15,1.82l-.25.13c-.56.27-1.12.57-1.65.86l-.67.38c-.41.24-.82.47-1.22.72l-1,.65-.85.55-1.28.91-.54.39c-.5.37-1,.76-1.46,1.15l-.31.25c-.55.45-1.06.9-1.58,1.36l-.16.14c-.56.51-1.12,1-1.66,1.58a48,48,0,0,0-14.07,34v48.08h12A36.06,36.06,0,0,0,120.17,84.14Z"/></g></g></svg>