<svg xmlns="http://www.w3.org/2000/svg" viewBox="0 0 400 115.45"><defs><style>.cls-1{fill:#503629;}.cls-2{fill:#6abf4b;}</style></defs><g id="Layer_2" data-name="Layer 2"><g id="Layer_1-2" data-name="Layer 1"><path class="cls-1" d="M213.31,11.06a3.72,3.72,0,0,0-3.39,2.63,1,1,0,0,0,0,.12l-.08.46a.51.51,0,0,0,0,.13L201.54,57h-.31l-7.88-46H181.68l-8.31,46h-.29l-8.4-42.64a.11.11,0,0,0,0-.07l-.09-.46h0c0-.15-.09-.28-.13-.43a.18.18,0,0,1,0-.09,3.76,3.76,0,0,0-3.1-2.26h-13l17.51,74h13.13l8.17-43.92h.3L195.55,85h13.14l17.5-74Z"/><path class="cls-1" d="M298.78,23.31a19.85,19.85,0,0,0-1.9-6.13q-3.79-7-13-7-5.53,0-8.45,2.19a35.79,35.79,0,0,0-5.7,5.41V14.57a1.21,1.21,0,0,0,0-.19,2,2,0,0,0-.09-.48.13.13,0,0,0,0-.06,3.59,3.59,0,0,1-.14-.43s0-.06,0-.09a3.72,3.72,0,0,0-3.09-2.26H254.85v88.4a14.88,14.88,0,0,0,14.89,14.88v-36H270A18,18,0,0,0,275.94,84a15.47,15.47,0,0,0,7.81,2q5.4,0,8.39-1.89A16.09,16.09,0,0,0,297,79.2a14.63,14.63,0,0,0,1.9-6.13,112.19,112.19,0,0,0,.43-11.82V33.09A64.87,64.87,0,0,0,298.78,23.31Zm-14.3,39A12.06,12.06,0,0,1,283,68.41c-1,1.75-2.94,2.62-5.77,2.62a6.94,6.94,0,0,1-5.32-2.25A8.07,8.07,0,0,1,269.74,63V34.26a10.28,10.28,0,0,1,2.05-6.64,6.55,6.55,0,0,1,5.39-2.55,6.06,6.06,0,0,1,5.55,2.77,13.6,13.6,0,0,1,1.75,7.3Z"/><path class="cls-1" d="M349.36,53.67V33.24a26.22,26.22,0,0,0-1.53-9,22.14,22.14,0,0,0-4.37-7.37,19.93,19.93,0,0,0-7-4.89,23.77,23.77,0,0,0-9.26-1.75,22.79,22.79,0,0,0-11.83,2.93,20.06,20.06,0,0,0-7.58,7.72,20.3,20.3,0,0,0-2.19,6.71,55,55,0,0,0-.58,8.32V60.24a54.78,54.78,0,0,0,.58,8.32,20.3,20.3,0,0,0,2.19,6.71A20.08,20.08,0,0,0,315.36,83a23,23,0,0,0,11.83,2.92,23.27,23.27,0,0,0,9.19-1.75,20.94,20.94,0,0,0,7-4.82,19.24,19.24,0,0,0,4.45-7,24.41,24.41,0,0,0,1.53-8.74H337.23a3.71,3.71,0,0,0-3.32,2.47l0,.13a14.87,14.87,0,0,1-1.07,2.36Q331.42,71,327.19,71a7.28,7.28,0,0,1-5.32-1.9,7.09,7.09,0,0,1-2-5.39V53.67ZM319.89,33.54q0-4.24,2-6.36a7.77,7.77,0,0,1,10.65,0c1.32,1.41,2,3.53,2,6.36V42H319.89Z"/><path class="cls-1" d="M396.86,51.49q-3.14-5.57-11.45-8.76l-8.75-3.51q-4.23-1.61-5.25-3.58a8.45,8.45,0,0,1-1-4,7.88,7.88,0,0,1,1.91-5.19,6.63,6.63,0,0,1,5.39-2.26,7.92,7.92,0,0,1,5.18,1.89,7.44,7.44,0,0,1,2.4,5.71h10a3.73,3.73,0,0,0,3.72-3.73c0-.13,0-.25,0-.38a2.64,2.64,0,0,0-.08-.49,22.68,22.68,0,0,0-1.17-4,21,21,0,0,0-4.38-6.86,20.73,20.73,0,0,0-6.64-4.52,21,21,0,0,0-8.38-1.68,22.1,22.1,0,0,0-15.4,6.06,20.73,20.73,0,0,0-4.76,6.86,21.54,21.54,0,0,0-1.73,8.69,20,20,0,0,0,4,12.61,24.35,24.35,0,0,0,11,7.8l7.14,2.64c2.82,1.07,4.76,2.33,5.84,3.79a8.64,8.64,0,0,1,1.6,5.26,7.26,7.26,0,0,1-2.54,5.91,8.86,8.86,0,0,1-5.77,2.11q-4.24,0-5.91-2.63a14.78,14.78,0,0,1-1.42-2.84.19.19,0,0,0,0-.07,3.52,3.52,0,0,1-.13-.43.18.18,0,0,1,0-.09,3.7,3.7,0,0,0-3.1-2.25H355.64a24.64,24.64,0,0,0,2.05,9.69,21.41,21.41,0,0,0,4.89,6.94,20.86,20.86,0,0,0,6.92,4.24,24.07,24.07,0,0,0,8.32,1.45,22.55,22.55,0,0,0,8.91-1.75,20.7,20.7,0,0,0,7-4.82,22.72,22.72,0,0,0,4.6-7.07A22.24,22.24,0,0,0,400,63.6,24.16,24.16,0,0,0,396.86,51.49Z"/><path class="cls-1" d="M235.09,27.12a18.55,18.55,0,0,1-2.4.14h-.09V85h14.89V20.77A20.21,20.21,0,0,1,235.09,27.12Z"/><path class="cls-2" d="M44.37,53.67V33.24a26.23,26.23,0,0,0-1.55-9,21.81,21.81,0,0,0-4.37-7.37,19.94,19.94,0,0,0-7-4.89,23.9,23.9,0,0,0-9.28-1.75,22.75,22.75,0,0,0-11.82,2.93A19.6,19.6,0,0,0,.59,27.54,54.91,54.91,0,0,0,0,35.86V60.24a54.72,54.72,0,0,0,.59,8.32A19.63,19.63,0,0,0,10.36,83a23,23,0,0,0,11.82,2.92,23.29,23.29,0,0,0,9.2-1.75,20.8,20.8,0,0,0,7-4.82,19,19,0,0,0,4.45-7,24.42,24.42,0,0,0,1.55-8.74H32.24a3.7,3.7,0,0,0-3.33,2.47l0,.13a14.87,14.87,0,0,1-1.07,2.36Q26.42,71,22.18,71a7.33,7.33,0,0,1-5.32-1.9,7.12,7.12,0,0,1-2-5.39V53.67ZM14.89,33.54q0-4.24,2-6.36a6.92,6.92,0,0,1,5.32-2.11,6.89,6.89,0,0,1,5.32,2.11q2,2.12,2,6.36V42H14.89Z"/><path class="cls-2" d="M82.68,63.6a3.71,3.71,0,0,0-3.33,2.47.65.65,0,0,1,0,.13,14.87,14.87,0,0,1-1.07,2.36Q76.86,71,72.63,71a7.33,7.33,0,0,1-5.33-1.9,7.12,7.12,0,0,1-2-5.39V33.54q0-4.24,2-6.36a7.77,7.77,0,0,1,10.65,0c1.32,1.41,2,3.63,2,6.65H90.84a3.72,3.72,0,0,0,3.73-3.71,1.42,1.42,0,0,0,0-.29,3.45,3.45,0,0,0-.07-.55,27.94,27.94,0,0,0-1.2-5,22,22,0,0,0-4.38-7.51,20,20,0,0,0-7-4.89,23.85,23.85,0,0,0-9.27-1.75,22.78,22.78,0,0,0-11.82,2.93A19.6,19.6,0,0,0,51,27.54a53.7,53.7,0,0,0-.58,8.32V60.24A53.52,53.52,0,0,0,51,68.56,19.63,19.63,0,0,0,60.81,83a23,23,0,0,0,11.82,2.92,23.27,23.27,0,0,0,9.19-1.75,21,21,0,0,0,7-4.82,19.5,19.5,0,0,0,4.45-7,24.86,24.86,0,0,0,1.53-8.74Z"/><path class="cls-2" d="M100.23,35.86a56.3,56.3,0,0,1,.58-8.32,20.54,20.54,0,0,1,2.2-6.71,19.81,19.81,0,0,1,7.59-7.72,25.29,25.29,0,0,1,23.63,0,19.88,19.88,0,0,1,7.59,7.72A20.53,20.53,0,0,1,144,27.54a56.3,56.3,0,0,1,.58,8.32V60.24a56.2,56.2,0,0,1-.58,8.32,20.53,20.53,0,0,1-2.19,6.71A20,20,0,0,1,134.23,83a22.85,22.85,0,0,1-11.82,2.92A22.81,22.81,0,0,1,110.6,83,19.9,19.9,0,0,1,103,75.27a20.54,20.54,0,0,1-2.2-6.71,56.2,56.2,0,0,1-.58-8.32Zm14.89,26.71q0,4.23,2,6.35a7.77,7.77,0,0,0,10.65,0q2-2.11,2-6.35v-29q0-4.23-2-6.35a7.77,7.77,0,0,0-10.65,0q-2,2.12-2,6.35Z"/><path class="cls-2" d="M247.48,0a14.72,14.72,0,0,0-1.76.1,14.89,14.89,0,0,0-13,13.25c-.05.5-.08,1-.08,1.52v7.26h.09a14.39,14.39,0,0,0,1.74-.11A14.9,14.9,0,0,0,247.49,8.77a13,13,0,0,0,.07-1.53V0Z"/><path class="cls-1" d="M.08,101.4H5.23l2.65,7.37,2.65-7.37h5.06v13.82H11.65v-8.6l-3.38,8.6H7l-3.34-8.6v8.6H.08Z"/><path class="cls-1" d="M25.48,101.4H30.6L35,115.22H30.79l-.73-2.57H25.48l-.74,2.57H21.05Zm.77,8.52h3l-1.5-5.31Z"/><path class="cls-1" d="M40.42,101.4h4v5.47l4.16-5.47h4.13l-5.06,6.42,5.33,7.4H48.38l-4-5.78v5.78h-4Z"/><path class="cls-1" d="M58.31,101.4h9.55v3.06H62.25v2.37h4.47v2.82H62.25v2.52h5.91v3H58.31Z"/><path class="cls-1" d="M85.53,101.4h4v10.75h5.21v3.07H85.53Z"/><path class="cls-1" d="M100.57,101.4h4v13.82h-4Z"/><path class="cls-1" d="M111.16,101.4h9.33v3.08h-5.35v2.93h4.27v2.92h-4.27v4.89h-4Z"/><path class="cls-1" d="M126.2,101.4h9.55v3.06h-5.61v2.37h4.47v2.82h-4.47v2.52h5.92v3H126.2Z"/><path class="cls-1" d="M153.42,101.4H163v3.06h-5.6v2.37h4.46v2.82h-4.46v2.52h5.91v3h-9.85Z"/><path class="cls-1" d="M172.44,101.4h5.12L182,115.22h-4.19l-.74-2.57h-4.58l-.73,2.57H168Zm.78,8.52h3l-1.51-5.31Z"/><path class="cls-1" d="M186.5,110.83h3.77c.1,1,.54,1.8,2.18,1.8,1.15,0,1.78-.56,1.78-1.37s-.52-1.08-2.18-1.34c-3.9-.46-5.22-1.62-5.22-4.4,0-2.49,2-4.31,5.35-4.31s5.2,1.39,5.45,4.31H194a1.56,1.56,0,0,0-1.78-1.49c-1.06,0-1.6.48-1.6,1.18s.43,1.12,2.15,1.35c3.49.39,5.29,1.3,5.29,4.29,0,2.53-2,4.6-5.57,4.6C188.59,115.45,186.62,113.83,186.5,110.83Z"/><path class="cls-1" d="M203.83,101.4h4v13.82h-4Z"/><path class="cls-1" d="M214.41,101.4H224v3.06h-5.6v2.37h4.46v2.82h-4.46v2.52h5.91v3h-9.86Z"/><path class="cls-1" d="M230.1,101.4h5.41c3.61,0,5.62,1.47,5.62,4.39v.08a3.61,3.61,0,0,1-2.49,3.63l3.3,5.72h-4.17l-2.8-5H234v5H230.1Zm5.22,6.3c1.33,0,2-.56,2-1.68v-.08c0-1.12-.7-1.56-2-1.56H234v3.32Z"/></g></g></svg>